<?xml version="1.0" encoding="UTF-8"?>
<!DOCTYPE svg PUBLIC "-//W3C//DTD SVG 1.1//EN" "http://www.w3.org/Graphics/SVG/1.1/DTD/svg11.dtd">
<!-- Creator: CorelDRAW 2018 (64 Bit Versión de evaluación) -->
<svg xmlns="http://www.w3.org/2000/svg" xml:space="preserve" width="210mm" height="297mm" version="1.1" style="shape-rendering:geometricPrecision; text-rendering:geometricPrecision; image-rendering:optimizeQuality; fill-rule:evenodd; clip-rule:evenodd"
viewBox="0 0 21000 29700"
 xmlns:xlink="http://www.w3.org/1999/xlink">
 <defs>
  <style type="text/css">
   <![CDATA[
    .str0 {stroke:#373435;stroke-width:20;stroke-miterlimit:22.9256}
    .fil1 {fill:black;fill-rule:nonzero}
    .fil0 {fill:url(#id1)}
   ]]>
  </style>
    <clipPath id="id0">
     <path d="M5871.06 7110.21l8261.72 0 0 5451.2 -8261.72 0 0 -5451.2z"/>
    </clipPath>
  <radialGradient id="id1" gradientUnits="userSpaceOnUse" gradientTransform="matrix(1.01015 -0.960712 -1.01015 -0.960712 10142 29372)" cx="9879.72" cy="10139.23" r="3211.8" fx="9879.72" fy="10139.23">
   <stop offset="0" style="stop-opacity:1; stop-color:#FEFEFE"/>
   <stop offset="1" style="stop-opacity:1; stop-color:#373435"/>
  </radialGradient>
 </defs>
 <g id="Capa_x0020_1">
  <metadata id="CorelCorpID_0Corel-Layer"/>
  <polygon class="fil0 str0" points="9879.72,14502.95 12173.86,12836.16 14468.01,11169.36 13591.72,8472.44 12715.44,5775.51 9879.72,5775.51 7044,5775.51 6167.72,8472.44 5291.43,11169.36 7585.58,12836.16 "/>
  <g id="_2446163043456">
   <g style="clip-path:url(#id0)">
    <image x="5871.06" y="7110.21" width="8261.72" height="5451.2" xlink:href="Logo SS_Images\Logo SS_ImgID1.png"/>
   </g>
  </g>
  <path class="fil1" d="M6377.84 10143.2l504.29 -45.37c23.62,203.99 79.31,371.17 167.18,502.42 87.81,130.37 223.81,236.12 407.99,317.37 184.12,80.24 391.92,120.87 622.35,120.87 204.93,0 385.3,-30.26 542.11,-91.63 156.74,-61.37 272.93,-145.43 349.43,-252.11 76.49,-106.75 115.25,-222.93 115.25,-347.55 0,-126.56 -36.88,-237.06 -110.5,-332.5 -73.69,-94.43 -195.56,-173.74 -365.56,-238.92 -108.55,-41.57 -349.42,-107.62 -722.47,-197.37 -372.99,-89.68 -633.67,-173.74 -782.91,-253.12 -193.62,-102 -337.11,-228.56 -431.62,-378.67 -95.37,-150.19 -142.55,-319.24 -142.55,-505.3 0,-205.87 58.56,-397.61 174.68,-575.1 116.18,-178.5 285.24,-313.56 509.05,-406.12 222.86,-92.56 471.3,-138.87 744.22,-138.87 300.3,0 565.67,48.19 795.16,145.5 229.49,96.31 406.11,238.93 529.86,427.8 123.68,187.93 189.81,401.36 199.24,639.35l-515.6 39.69c-27.44,-255.93 -120.94,-449.55 -280.56,-579.86 -159.55,-131.31 -395.67,-196.5 -707.35,-196.5 -324.86,0 -561.92,59.5 -710.16,178.5 -148.31,118.99 -222.93,262.55 -222.93,430.67 0,145.44 52.93,265.37 157.74,359.87 103.87,93.5 373.05,190.74 809.35,288.99 436.36,99.12 735.73,185.05 898.16,258.74 235.18,108.62 409.86,245.55 522.23,412.74 112.44,166.18 168.12,357.92 168.12,575.1 0,216.31 -61.37,418.43 -185.12,609.17 -123.68,190.74 -300.3,339.05 -531.67,444.8 -231.36,105.81 -491.11,158.68 -781.03,158.68 -366.43,0 -673.36,-53.81 -920.79,-160.56 -248.43,-106.68 -442.05,-267.24 -582.73,-482.61 -141.68,-214.36 -215.3,-457.11 -222.86,-728.1zm3779.56 0l504.29 -45.37c23.63,203.99 79.31,371.17 167.19,502.42 87.81,130.37 223.8,236.12 407.98,317.37 184.12,80.24 391.93,120.87 622.36,120.87 204.93,0 385.3,-30.26 542.11,-91.63 156.74,-61.37 272.92,-145.43 349.42,-252.11 76.5,-106.75 115.25,-222.93 115.25,-347.55 0,-126.56 -36.88,-237.06 -110.5,-332.5 -73.68,-94.43 -195.56,-173.74 -365.55,-238.92 -108.56,-41.57 -349.43,-107.62 -722.48,-197.37 -372.98,-89.68 -633.66,-173.74 -782.91,-253.12 -193.62,-102 -337.11,-228.56 -431.61,-378.67 -95.37,-150.19 -142.56,-319.24 -142.56,-505.3 0,-205.87 58.57,-397.61 174.68,-575.1 116.19,-178.5 285.25,-313.56 509.05,-406.12 222.87,-92.56 471.3,-138.87 744.23,-138.87 300.3,0 565.66,48.19 795.16,145.5 229.49,96.31 406.11,238.93 529.86,427.8 123.68,187.93 189.8,401.36 199.24,639.35l-515.61 39.69c-27.44,-255.93 -120.93,-449.55 -280.55,-579.86 -159.56,-131.31 -395.68,-196.5 -707.35,-196.5 -324.87,0 -561.92,59.5 -710.17,178.5 -148.31,118.99 -222.93,262.55 -222.93,430.67 0,145.44 52.94,265.37 157.75,359.87 103.87,93.5 373.05,190.74 809.34,288.99 436.37,99.12 735.73,185.05 898.16,258.74 235.18,108.62 409.86,245.55 522.23,412.74 112.44,166.18 168.12,357.92 168.12,575.1 0,216.31 -61.37,418.43 -185.12,609.17 -123.68,190.74 -300.3,339.05 -531.66,444.8 -231.37,105.81 -491.11,158.68 -781.04,158.68 -366.42,0 -673.35,-53.81 -920.78,-160.56 -248.43,-106.68 -442.05,-267.24 -582.73,-482.61 -141.69,-214.36 -215.31,-457.11 -222.87,-728.1z"/>
 </g>
</svg>
